<svg width="762" height="214" viewBox="0 0 762 214" fill="none" xmlns="http://www.w3.org/2000/svg">
<g clip-path="url(#clip0)">
<path d="M74.1163 0.108847C73.7171 0.145118 72.3745 0.272073 71.1226 0.380887C57.3698 1.57784 43.8892 6.29309 32.6765 13.8375C21.5001 21.3819 12.9 31.0119 7.16669 42.4373C3.57427 49.5828 1.30633 57.3992 0.326578 65.9229C0.0362821 68.4982 0.0362821 76.5867 0.326578 79.1619C1.36076 88.1935 3.61056 95.7197 7.60213 103.464C18.7423 125.136 40.7685 140.406 66.3146 144.178C71.2314 144.903 72.6104 144.994 78.8336 144.994C85.0568 144.976 87.0889 144.831 91.9332 144.069C114.413 140.515 134.099 128.11 146.11 109.956C155.327 96.028 159.119 79.307 156.76 63.0031C153.712 41.8207 140.54 22.9234 120.691 11.2622C117.715 9.50309 112.091 6.80088 108.861 5.56766C101.912 2.91986 95.1446 1.3058 87.361 0.45343C84.9842 0.181396 75.7673 -0.0543733 74.1163 0.108847ZM85.7281 22.0348C93.6024 23.0504 100.08 25.0997 106.593 28.618C118.659 35.1287 127.93 46.0282 131.795 58.179C133.409 63.2933 133.954 66.9748 133.954 72.5424C133.954 77.1126 133.772 78.8536 132.883 82.8434C129.563 97.769 118.822 110.772 104.053 117.809C88.1594 125.371 69.4534 125.39 53.5234 117.845C44.4698 113.565 36.7951 106.946 31.3701 98.7484C27.5237 92.945 25.0199 86.398 23.895 79.2526C23.387 75.9701 23.3507 69.5319 23.8224 66.2856C25.4554 55.2773 30.2997 45.8106 38.3917 37.8672C48.1529 28.2734 60.4179 22.869 75.0234 21.6902C76.8741 21.5451 83.6235 21.7628 85.7281 22.0348Z" fill="#EFF1F3"/>
<path d="M153.766 122.47C148.487 129.706 140.413 137.141 132.702 141.857L131.159 142.8L131.758 143.362C132.085 143.688 134.97 146.336 138.163 149.274C144.314 154.932 184.501 191.965 199.452 205.748C204.332 210.228 208.396 213.927 208.469 213.964C208.687 214.036 232.146 192.4 232.146 192.147C232.146 192.02 230.477 190.387 228.427 188.501C224.834 185.201 198.563 160.99 169.225 133.968C161.459 126.822 155.036 120.964 154.982 120.964C154.909 120.983 154.365 121.654 153.766 122.47Z" fill="#EFF1F3"/>
<g clip-path="url(#clip1)">
<path d="M78.6471 39.8934C60.5528 39.8934 45.8775 54.566 45.8775 72.6631C45.8775 87.1418 55.266 99.4249 68.2892 103.759C69.925 104.062 70.4547 103.046 70.4547 102.183V96.0824C61.3393 98.065 59.4414 92.2156 59.4414 92.2156C57.9504 88.428 55.8012 87.4203 55.8012 87.4203C52.8274 85.3859 56.0279 85.4296 56.0279 85.4296C59.3185 85.659 61.0498 88.8076 61.0498 88.8076C63.9718 93.8159 68.7152 92.3685 70.5858 91.5302C70.878 89.4138 71.7273 87.9665 72.6667 87.15C65.3891 86.3171 57.7374 83.5071 57.7374 70.9536C57.7374 67.3735 59.0181 64.4515 61.1127 62.1577C60.774 61.3302 59.6517 57.9959 61.4322 53.4846C61.4322 53.4846 64.1848 52.6053 70.4465 56.8435C73.0599 56.1171 75.8617 55.7539 78.6471 55.7403C81.4326 55.7539 84.2371 56.1171 86.8559 56.8435C93.1122 52.6053 95.8594 53.4846 95.8594 53.4846C97.6426 57.9987 96.5202 61.333 96.1816 62.1577C98.2843 64.4515 99.5542 67.3762 99.5542 70.9536C99.5542 83.5399 91.8888 86.3116 84.5921 87.1227C85.7663 88.1385 86.8395 90.132 86.8395 93.1905V102.183C86.8395 103.054 87.3639 104.078 89.0269 103.756C102.039 99.4168 111.417 87.1363 111.417 72.6631C111.417 54.566 96.7442 39.8934 78.6471 39.8934Z" fill="#EFF1F3"/>
</g>
</g>
<path d="M264.448 140.152C259.52 140.152 255.072 139.192 251.104 137.272C247.136 135.288 243.968 132.312 241.6 128.344C239.296 124.376 238.144 119.352 238.144 113.272V71.8H250.432V113.368C250.432 118.616 251.68 122.52 254.176 125.08C256.736 127.64 260.256 128.92 264.736 128.92C269.152 128.92 272.64 127.64 275.2 125.08C277.76 122.52 279.04 118.616 279.04 113.368V71.8H291.328V113.272C291.328 119.352 290.112 124.376 287.68 128.344C285.248 132.312 281.984 135.288 277.888 137.272C273.856 139.192 269.376 140.152 264.448 140.152ZM323.264 140.152C319.04 140.152 315.328 139.48 312.128 138.136C308.928 136.728 306.368 134.808 304.448 132.376C302.528 129.944 301.376 127.128 300.992 123.928H313.376C313.76 125.784 314.784 127.384 316.448 128.728C318.176 130.008 320.384 130.648 323.072 130.648C325.76 130.648 327.712 130.104 328.928 129.016C330.208 127.928 330.848 126.68 330.848 125.272C330.848 123.224 329.952 121.848 328.16 121.144C326.368 120.376 323.872 119.64 320.672 118.936C318.624 118.488 316.544 117.944 314.432 117.304C312.32 116.664 310.368 115.864 308.576 114.904C306.848 113.88 305.44 112.6 304.352 111.064C303.264 109.464 302.72 107.512 302.72 105.208C302.72 100.984 304.384 97.432 307.712 94.552C311.104 91.672 315.84 90.232 321.92 90.232C327.552 90.232 332.032 91.544 335.36 94.168C338.752 96.792 340.768 100.408 341.408 105.016H329.792C329.088 101.496 326.432 99.736 321.824 99.736C319.52 99.736 317.728 100.184 316.448 101.08C315.232 101.976 314.624 103.096 314.624 104.44C314.624 105.848 315.552 106.968 317.408 107.8C319.264 108.632 321.728 109.4 324.8 110.104C328.128 110.872 331.168 111.736 333.92 112.696C336.736 113.592 338.976 114.968 340.64 116.824C342.304 118.616 343.136 121.208 343.136 124.6C343.2 127.544 342.432 130.2 340.832 132.568C339.232 134.936 336.928 136.792 333.92 138.136C330.912 139.48 327.36 140.152 323.264 140.152ZM377.157 140.152C372.357 140.152 368.101 139.128 364.389 137.08C360.677 135.032 357.765 132.152 355.653 128.44C353.541 124.728 352.485 120.44 352.485 115.576C352.485 110.648 353.509 106.264 355.557 102.424C357.669 98.584 360.549 95.608 364.197 93.496C367.909 91.32 372.261 90.232 377.253 90.232C381.925 90.232 386.053 91.256 389.637 93.304C393.221 95.352 396.005 98.168 397.989 101.752C400.037 105.272 401.061 109.208 401.061 113.56C401.061 114.264 401.029 115 400.965 115.768C400.965 116.536 400.933 117.336 400.869 118.168H364.677C364.933 121.88 366.213 124.792 368.517 126.904C370.885 129.016 373.733 130.072 377.061 130.072C379.557 130.072 381.637 129.528 383.301 128.44C385.029 127.288 386.309 125.816 387.141 124.024H399.621C398.725 127.032 397.221 129.784 395.109 132.28C393.061 134.712 390.501 136.632 387.429 138.04C384.421 139.448 380.997 140.152 377.157 140.152ZM377.253 100.216C374.245 100.216 371.589 101.08 369.285 102.808C366.981 104.472 365.509 107.032 364.869 110.488H388.581C388.389 107.352 387.237 104.856 385.125 103C383.013 101.144 380.389 100.216 377.253 100.216ZM411.396 139V91.384H422.34L423.492 100.312C425.22 97.24 427.556 94.808 430.5 93.016C433.508 91.16 437.028 90.232 441.06 90.232V103.192H437.604C434.916 103.192 432.516 103.608 430.404 104.44C428.292 105.272 426.628 106.712 425.412 108.76C424.26 110.808 423.684 113.656 423.684 117.304V139H411.396ZM472.622 139V71.8H516.014V81.688H484.91V100.504H510.062V110.2H484.91V139H472.622ZM531.833 83.992C529.593 83.992 527.737 83.32 526.265 81.976C524.857 80.632 524.153 78.936 524.153 76.888C524.153 74.84 524.857 73.176 526.265 71.896C527.737 70.552 529.593 69.88 531.833 69.88C534.073 69.88 535.897 70.552 537.305 71.896C538.777 73.176 539.513 74.84 539.513 76.888C539.513 78.936 538.777 80.632 537.305 81.976C535.897 83.32 534.073 83.992 531.833 83.992ZM525.689 139V91.384H537.977V139H525.689ZM550.803 139V91.384H561.651L562.611 99.448C564.083 96.632 566.195 94.392 568.947 92.728C571.763 91.064 575.059 90.232 578.835 90.232C584.723 90.232 589.299 92.088 592.562 95.8C595.826 99.512 597.458 104.952 597.458 112.12V139H585.171V113.272C585.171 109.176 584.339 106.04 582.675 103.864C581.011 101.688 578.419 100.6 574.899 100.6C571.443 100.6 568.595 101.816 566.355 104.248C564.179 106.68 563.091 110.072 563.091 114.424V139H550.803ZM631.097 140.152C626.617 140.152 622.617 139.064 619.097 136.888C615.577 134.712 612.793 131.736 610.745 127.96C608.697 124.184 607.673 119.896 607.673 115.096C607.673 110.296 608.697 106.04 610.745 102.328C612.793 98.552 615.577 95.608 619.097 93.496C622.617 91.32 626.617 90.232 631.097 90.232C634.681 90.232 637.817 90.904 640.505 92.248C643.193 93.592 645.369 95.48 647.033 97.912V69.88H659.321V139H648.377L647.033 132.184C645.497 134.296 643.449 136.152 640.889 137.752C638.393 139.352 635.129 140.152 631.097 140.152ZM633.689 129.4C637.657 129.4 640.889 128.088 643.385 125.464C645.945 122.776 647.225 119.352 647.225 115.192C647.225 111.032 645.945 107.64 643.385 105.016C640.889 102.328 637.657 100.984 633.689 100.984C629.785 100.984 626.553 102.296 623.993 104.92C621.433 107.544 620.153 110.936 620.153 115.096C620.153 119.256 621.433 122.68 623.993 125.368C626.553 128.056 629.785 129.4 633.689 129.4ZM694.97 140.152C690.17 140.152 685.914 139.128 682.202 137.08C678.49 135.032 675.578 132.152 673.466 128.44C671.354 124.728 670.298 120.44 670.298 115.576C670.298 110.648 671.322 106.264 673.37 102.424C675.482 98.584 678.362 95.608 682.01 93.496C685.722 91.32 690.074 90.232 695.066 90.232C699.738 90.232 703.866 91.256 707.45 93.304C711.034 95.352 713.818 98.168 715.802 101.752C717.85 105.272 718.874 109.208 718.874 113.56C718.874 114.264 718.842 115 718.778 115.768C718.778 116.536 718.746 117.336 718.682 118.168H682.49C682.746 121.88 684.026 124.792 686.33 126.904C688.698 129.016 691.546 130.072 694.874 130.072C697.37 130.072 699.45 129.528 701.114 128.44C702.842 127.288 704.122 125.816 704.954 124.024H717.434C716.538 127.032 715.034 129.784 712.922 132.28C710.874 134.712 708.314 136.632 705.242 138.04C702.234 139.448 698.81 140.152 694.97 140.152ZM695.066 100.216C692.058 100.216 689.402 101.08 687.098 102.808C684.794 104.472 683.322 107.032 682.682 110.488H706.394C706.202 107.352 705.05 104.856 702.938 103C700.826 101.144 698.202 100.216 695.066 100.216ZM729.209 139V91.384H740.153L741.305 100.312C743.033 97.24 745.369 94.808 748.313 93.016C751.321 91.16 754.841 90.232 758.873 90.232V103.192H755.417C752.729 103.192 750.329 103.608 748.217 104.44C746.105 105.272 744.441 106.712 743.225 108.76C742.073 110.808 741.497 113.656 741.497 117.304V139H729.209Z" fill="#EFF1F3"/>
<defs>
<clipPath id="clip0">
<rect width="232.237" height="214" fill="white"/>
</clipPath>
<clipPath id="clip1">
<rect width="65.5393" height="65.5393" fill="white" transform="translate(45.8775 39.8934)"/>
</clipPath>
</defs>
</svg>
