<svg width="815" height="751" viewBox="0 0 815 751" fill="none" xmlns="http://www.w3.org/2000/svg">
<path d="M260.1 0.381897C258.699 0.509186 253.987 0.954712 249.594 1.33658C201.33 5.53708 154.022 22.0845 114.673 48.5605C75.4512 75.0364 45.2707 108.831 25.1504 148.927C12.5434 174.003 4.58437 201.434 1.14609 231.346C0.127344 240.384 0.127344 268.769 1.14609 277.806C4.77539 309.501 12.6707 335.913 26.6785 363.089C65.773 439.144 143.071 492.732 232.721 505.97C249.976 508.516 254.815 508.834 276.654 508.834C298.494 508.771 305.625 508.262 322.625 505.589C401.515 493.114 470.599 449.582 512.75 385.874C545.095 336.995 558.402 278.316 550.125 221.1C539.428 146.763 493.202 80.4461 423.545 39.523C413.103 33.3495 393.365 23.8665 382.031 19.5388C357.645 10.2467 333.895 4.58243 306.58 1.59116C298.239 0.636505 265.894 -0.190887 260.1 0.381897ZM300.85 77.3276C328.483 80.8916 351.214 88.0834 374.072 100.43C416.414 123.279 448.95 161.529 462.512 204.17C468.179 222.118 470.089 235.038 470.089 254.576C470.089 270.615 469.453 276.724 466.333 290.726C454.681 343.105 416.987 388.738 365.158 413.432C309.382 439.971 243.736 440.035 187.832 413.559C156.06 398.539 129.127 375.309 110.089 346.542C96.5902 326.176 87.8035 303.2 83.8559 278.125C82.073 266.605 81.9457 244.011 83.6012 232.619C89.3316 193.987 106.332 160.765 134.73 132.889C168.985 99.2211 212.027 80.2552 263.283 76.1183C269.778 75.6092 293.464 76.3729 300.85 77.3276Z" fill="#EFF1F3"/>
<path d="M539.619 429.788C521.091 455.182 492.757 481.276 465.696 497.824L460.284 501.133L462.385 503.106C463.531 504.252 473.655 513.544 484.861 523.854C506.446 543.711 647.479 673.672 699.945 722.042C717.073 737.762 731.335 750.745 731.59 750.873C732.354 751.127 814.682 675.2 814.682 674.309C814.682 673.863 808.824 668.135 801.629 661.516C789.022 649.933 696.825 564.968 593.868 470.139C566.616 445.063 544.076 424.506 543.885 424.506C543.631 424.57 541.72 426.924 539.619 429.788Z" fill="#EFF1F3"/>
<path d="M276 140C212.501 140 161 191.491 161 255C161 305.811 193.947 348.917 239.65 364.125C245.391 365.189 247.25 361.624 247.25 358.596V337.187C215.261 344.144 208.6 323.617 208.6 323.617C203.368 310.325 195.826 306.788 195.826 306.788C185.39 299.649 196.621 299.802 196.621 299.802C208.169 300.607 214.245 311.657 214.245 311.657C224.499 329.232 241.145 324.153 247.71 321.211C248.735 313.784 251.716 308.705 255.013 305.84C229.473 302.917 202.62 293.055 202.62 249.001C202.62 236.437 207.115 226.183 214.465 218.133C213.277 215.229 209.338 203.528 215.587 187.696C215.587 187.696 225.247 184.61 247.221 199.484C256.392 196.935 266.225 195.66 276 195.612C285.775 195.66 295.617 196.935 304.807 199.484C326.763 184.61 336.404 187.696 336.404 187.696C342.662 203.537 338.723 215.239 337.535 218.133C344.914 226.183 349.37 236.447 349.37 249.001C349.37 293.17 322.47 302.897 296.863 305.744C300.984 309.309 304.75 316.305 304.75 327.038V358.596C304.75 361.653 306.59 365.247 312.426 364.116C358.091 348.888 391 305.792 391 255C391 191.491 339.509 140 276 140Z" fill="#EFF1F3"/>
</svg>
